<svg width="56" height="56" viewBox="0 0 56 56" fill="none" xmlns="http://www.w3.org/2000/svg">
<circle opacity="0.65" cx="28" cy="28" r="28" fill="#FFE164"/>
<path fill-rule="evenodd" clip-rule="evenodd" d="M15.7426 14.7607C15.5493 14.7607 15.3926 14.9174 15.3926 15.1107V16.5889C15.3926 16.7822 15.5493 16.9389 15.7426 16.9389H16.3328V45.1025L16.333 45.1161V45.9098C16.333 46.1031 16.4897 46.2598 16.683 46.2598H25.6889V39.8388C25.6889 39.6455 25.8456 39.4888 26.0389 39.4888H30.3882C30.5815 39.4888 30.7382 39.6455 30.7382 39.8388V46.2598H39.7444C39.9377 46.2598 40.0944 46.1031 40.0944 45.9098V44.5375L40.0941 44.524V16.9389H40.6851C40.8784 16.9389 41.0351 16.7822 41.0351 16.5889V15.1107C41.0351 14.9174 40.8784 14.7607 40.6851 14.7607H15.7426ZM18.4121 18.9331C18.4121 18.7398 18.5688 18.5831 18.7621 18.5831H23.1114C23.3047 18.5831 23.4614 18.7398 23.4614 18.9331V22.4142C23.4614 22.6075 23.3047 22.7642 23.1114 22.7642H18.7621C18.5688 22.7642 18.4121 22.6075 18.4121 22.4142V18.9331ZM18.7621 25.5523C18.5688 25.5523 18.4121 25.709 18.4121 25.9023V29.3834C18.4121 29.5767 18.5688 29.7334 18.7621 29.7334H23.1114C23.3047 29.7334 23.4614 29.5767 23.4614 29.3834V25.9023C23.4614 25.709 23.3047 25.5523 23.1114 25.5523H18.7621ZM18.4121 32.8705C18.4121 32.6772 18.5688 32.5205 18.7621 32.5205H23.1114C23.3047 32.5205 23.4614 32.6772 23.4614 32.8705V36.3516C23.4614 36.5449 23.3047 36.7016 23.1114 36.7016H18.7621C18.5688 36.7016 18.4121 36.5449 18.4121 36.3516V32.8705ZM25.6889 32.8705C25.6889 32.6772 25.8456 32.5205 26.0389 32.5205H30.3882C30.5815 32.5205 30.7382 32.6772 30.7382 32.8705V36.3516C30.7382 36.5449 30.5815 36.7016 30.3882 36.7016H26.0389C25.8456 36.7016 25.6889 36.5449 25.6889 36.3516V32.8705ZM33.3152 32.5205C33.1219 32.5205 32.9652 32.6772 32.9652 32.8705V36.3516C32.9652 36.5449 33.1219 36.7016 33.3152 36.7016H37.6645C37.8578 36.7016 38.0145 36.5449 38.0145 36.3516V32.8705C38.0145 32.6772 37.8578 32.5205 37.6645 32.5205H33.3152ZM18.4121 39.8388C18.4121 39.6455 18.5688 39.4888 18.7621 39.4888H23.1114C23.3047 39.4888 23.4614 39.6455 23.4614 39.8388V43.3199C23.4614 43.5132 23.3047 43.6699 23.1114 43.6699H18.7621C18.5688 43.6699 18.4121 43.5132 18.4121 43.3199V39.8388ZM32.9652 39.8388C32.9652 39.6455 33.1219 39.4888 33.3152 39.4888H37.6645C37.8578 39.4888 38.0145 39.6455 38.0145 39.8388V43.3199C38.0145 43.5132 37.8578 43.6699 37.6645 43.6699H33.3152C33.1219 43.6699 32.9652 43.5132 32.9652 43.3199V39.8388ZM26.0389 25.5523C25.8456 25.5523 25.6889 25.709 25.6889 25.9023V29.3834C25.6889 29.5767 25.8456 29.7334 26.0389 29.7334H30.3882C30.5815 29.7334 30.7382 29.5767 30.7382 29.3834V25.9023C30.7382 25.709 30.5815 25.5523 30.3882 25.5523H26.0389ZM25.6889 18.9331C25.6889 18.7398 25.8456 18.5831 26.0389 18.5831H30.3882C30.5815 18.5831 30.7382 18.7398 30.7382 18.9331V22.4142C30.7382 22.6075 30.5815 22.7642 30.3882 22.7642H26.0389C25.8456 22.7642 25.6889 22.6075 25.6889 22.4142V18.9331ZM33.3152 25.5523C33.1219 25.5523 32.9652 25.709 32.9652 25.9023V29.3834C32.9652 29.5767 33.1219 29.7334 33.3152 29.7334H37.6645C37.8578 29.7334 38.0145 29.5767 38.0145 29.3834V25.9023C38.0145 25.709 37.8578 25.5523 37.6645 25.5523H33.3152ZM32.9652 18.9331C32.9652 18.7398 33.1219 18.5831 33.3152 18.5831H37.6645C37.8578 18.5831 38.0145 18.7398 38.0145 18.9331V22.4142C38.0145 22.6075 37.8578 22.7642 37.6645 22.7642H33.3152C33.1219 22.7642 32.9652 22.6075 32.9652 22.4142V18.9331Z" fill="#140C40"/>
<ellipse cx="39.8369" cy="16.152" rx="5.84422" ry="5.77899" fill="#28AFB0"/>
<path d="M43.2506 14.1818L43.4304 14.3596L43.2506 14.5374L39.1603 18.582L38.9845 18.7558L38.8088 18.582L36.7647 16.5607L36.5849 16.383L36.7647 16.2052L37.1109 15.8628L37.2867 15.689L37.4625 15.8628L38.9845 17.3679L42.5528 13.8395L42.7286 13.6657L42.9044 13.8395L43.2506 14.1818Z" fill="white" stroke="white" stroke-width="0.5"/>
</svg>
