<svg width="67" height="33" viewBox="0 0 67 33" fill="none" xmlns="http://www.w3.org/2000/svg">
<g clip-path="url(#clip0_1_122)">
<path d="M33.4797 7.07144C35.4324 7.07144 37.0154 5.48844 37.0154 3.53572C37.0154 1.583 35.4324 0 33.4797 0C31.527 0 29.944 1.583 29.944 3.53572C29.944 5.48844 31.527 7.07144 33.4797 7.07144Z" fill="#4760FF"/>
<path d="M33.67 8.72461H33.316C30.0204 8.72461 27.3489 11.3962 27.3489 14.6917V18.7786C27.3489 22.0741 30.0204 24.7457 33.316 24.7457H33.67C36.9655 24.7457 39.6371 22.0741 39.6371 18.7786V14.6917C39.6371 11.3962 36.9655 8.72461 33.67 8.72461Z" fill="#4760FF"/>
<path d="M36.0671 21.625H30.9238L28.9613 32.7461H38.0306L36.0671 21.625Z" fill="#4760FF"/>
<g opacity="0.25">
<path d="M17.5725 7.07144C19.5252 7.07144 21.1082 5.48844 21.1082 3.53572C21.1082 1.583 19.5252 0 17.5725 0C15.6197 0 14.0367 1.583 14.0367 3.53572C14.0367 5.48844 15.6197 7.07144 17.5725 7.07144Z" fill="#140C40"/>
<path d="M17.7535 8.72461H17.3995C14.1039 8.72461 11.4324 11.3962 11.4324 14.6917V18.7786C11.4324 22.0741 14.1039 24.7457 17.3995 24.7457H17.7535C21.049 24.7457 23.7206 22.0741 23.7206 18.7786V14.6917C23.7206 11.3962 21.049 8.72461 17.7535 8.72461Z" fill="#140C40"/>
<path d="M20.1515 21.625H15.0083L13.0448 32.7461H22.1141L20.1515 21.625Z" fill="#140C40"/>
</g>
<g opacity="0.25">
<path d="M49.3789 7.07144C51.3316 7.07144 52.9146 5.48844 52.9146 3.53572C52.9146 1.583 51.3316 0 49.3789 0C47.4261 0 45.8431 1.583 45.8431 3.53572C45.8431 5.48844 47.4261 7.07144 49.3789 7.07144Z" fill="#140C40"/>
<path d="M49.5604 8.72461H49.2063C45.9108 8.72461 43.2393 11.3962 43.2393 14.6917V18.7786C43.2393 22.0741 45.9108 24.7457 49.2063 24.7457H49.5604C52.8559 24.7457 55.5275 22.0741 55.5275 18.7786V14.6917C55.5275 11.3962 52.8559 8.72461 49.5604 8.72461Z" fill="#140C40"/>
<path d="M51.9575 21.625H46.8142L44.8517 32.7461H53.921L51.9575 21.625Z" fill="#140C40"/>
</g>
<path d="M66.957 13.7271H0V17.7326H66.957V13.7271Z" fill="#140C40"/>
<path d="M6.91201 19.3124H2.90649V32.7667H6.91201V19.3124Z" fill="#140C40"/>
<path d="M64.0563 19.3124H60.0508V32.7667H64.0563V19.3124Z" fill="#140C40"/>
</g>
<defs>
<clipPath id="clip0_1_122">
<rect width="66.957" height="32.7722" fill="white"/>
</clipPath>
</defs>
</svg>
