<svg width="79" height="73" viewBox="0 0 79 73" fill="none" xmlns="http://www.w3.org/2000/svg">
<circle opacity="0.25" cx="38.9307" cy="36.3482" r="30.387" fill="#28AFB0"/>
<path d="M38.7441 25.1986C40.6127 25.1986 42.1276 23.6838 42.1276 21.8151C42.1276 19.9465 40.6127 18.4316 38.7441 18.4316C36.8754 18.4316 35.3606 19.9465 35.3606 21.8151C35.3606 23.6838 36.8754 25.1986 38.7441 25.1986Z" fill="#4760FF"/>
<path d="M38.9264 26.7806H38.5876C35.434 26.7806 32.8774 29.3372 32.8774 32.4908V36.4018C32.8774 39.5554 35.434 42.1119 38.5876 42.1119H38.9264C42.0801 42.1119 44.6366 39.5554 44.6366 36.4018V32.4908C44.6366 29.3372 42.0801 26.7806 38.9264 26.7806Z" fill="#4760FF"/>
<path d="M41.2204 39.1255H36.2986L34.4205 49.7678H43.0993L41.2204 39.1255Z" fill="#4760FF"/>
<path d="M53.2192 30.9945H24.6361V34.9483H53.2192V30.9945Z" fill="#140C40"/>
<path d="M28.4977 36.5074H24.5439V49.788H28.4977V36.5074Z" fill="#140C40"/>
<path d="M53.3168 36.5074H49.363V49.788H53.3168V36.5074Z" fill="#140C40"/>
<path d="M40.2424 59.679C40.2424 59.6238 40.1977 59.579 40.1424 59.579H39.4326C39.3774 59.579 39.3326 59.6238 39.3326 59.679V72.2193C39.3326 72.2745 39.3774 72.3193 39.4326 72.3193H40.1424C40.1977 72.3193 40.2424 72.2745 40.2424 72.2193V59.679Z" fill="#28AFB0" stroke="#28AFB0" stroke-width="0.2" stroke-linejoin="round"/>
<path d="M40.2424 9.99127C40.2424 10.0465 40.1977 10.0913 40.1424 10.0913H39.4326C39.3774 10.0913 39.3326 10.0465 39.3326 9.99127V1.00015C39.3326 0.944921 39.3774 0.900148 39.4326 0.900148H40.1424C40.1977 0.900148 40.2424 0.944921 40.2424 1.00015V9.99127Z" fill="#28AFB0" stroke="#28AFB0" stroke-width="0.2" stroke-linejoin="round"/>
<path d="M28.2571 57.2426C28.2847 57.1947 28.2683 57.1336 28.2205 57.1059L27.6088 56.7528C27.561 56.7252 27.4998 56.7416 27.4722 56.7894L23.9666 62.8613C23.939 62.9091 23.9554 62.9703 24.0032 62.9979L24.6149 63.351C24.6627 63.3787 24.7239 63.3623 24.7515 63.3144L28.2571 57.2426Z" fill="#28AFB0" stroke="#28AFB0" stroke-width="0.2" stroke-linejoin="round"/>
<path d="M26.8375 10.3344C26.8651 10.3822 26.8488 10.4434 26.8009 10.471L26.1893 10.8242C26.1415 10.8518 26.0803 10.8354 26.0527 10.7875L22.5471 4.71566C22.5195 4.66783 22.5358 4.60667 22.5837 4.57905L23.1953 4.22592C23.2431 4.1983 23.3043 4.21469 23.3319 4.26252L26.8375 10.3344Z" fill="#28AFB0" stroke="#28AFB0" stroke-width="0.2" stroke-linejoin="round"/>
<path d="M11.75 38.0109C11.8052 38.0109 11.85 37.9661 11.85 37.9109L11.85 37.201C11.85 37.1458 11.8052 37.101 11.75 37.101L1.10262 37.101C1.04739 37.101 1.00262 37.1458 1.00262 37.201L1.00262 37.9109C1.00262 37.9661 1.04739 38.0109 1.10262 38.0109L11.75 38.0109Z" fill="#28AFB0" stroke="#28AFB0" stroke-width="0.2" stroke-linejoin="round"/>
<path d="M77.9999 38.0109C78.0551 38.0109 78.0999 37.9661 78.0999 37.9109L78.0999 37.201C78.0999 37.1458 78.0551 37.101 77.9999 37.101L65.6962 37.101C65.641 37.101 65.5962 37.1458 65.5962 37.201L65.5962 37.9109C65.5962 37.9661 65.641 38.0109 65.6962 38.0109L77.9999 38.0109Z" fill="#28AFB0" stroke="#28AFB0" stroke-width="0.2" stroke-linejoin="round"/>
<path d="M71.0113 62.0551C71.0591 62.0827 71.1203 62.0663 71.1479 62.0185L71.501 61.4069C71.5286 61.359 71.5123 61.2979 71.4644 61.2703L66.0988 58.1724C66.051 58.1448 65.9898 58.1612 65.9622 58.209L65.6091 58.8207C65.5814 58.8685 65.5978 58.9297 65.6457 58.9573L71.0113 62.0551Z" fill="#28AFB0" stroke="#28AFB0" stroke-width="0.2" stroke-linejoin="round"/>
<path d="M68.9258 14.4C68.9737 14.3724 69.0348 14.3888 69.0624 14.4366L69.4156 15.0483C69.4432 15.0961 69.4268 15.1573 69.379 15.1849L61.131 19.9468C61.0832 19.9744 61.0221 19.958 60.9944 19.9102L60.6413 19.2986C60.6137 19.2507 60.6301 19.1896 60.6779 19.162L68.9258 14.4Z" fill="#28AFB0" stroke="#28AFB0" stroke-width="0.2" stroke-linejoin="round"/>
<path d="M7.91425 59.1587C7.86642 59.1863 7.85003 59.2475 7.87765 59.2953L8.23078 59.9069C8.25839 59.9548 8.31955 59.9712 8.36738 59.9435L19.0916 53.7519C19.1394 53.7243 19.1558 53.6631 19.1282 53.6153L18.7751 53.0037C18.7475 52.9558 18.6863 52.9394 18.6385 52.9671L7.91425 59.1587Z" fill="#28AFB0" stroke="#28AFB0" stroke-width="0.2" stroke-linejoin="round"/>
<path d="M9.09638 12.109C9.04855 12.0814 9.03216 12.0202 9.05977 11.9724L9.41291 11.3608C9.44052 11.3129 9.50168 11.2965 9.54951 11.3242L20.2737 17.5158C20.3216 17.5434 20.3379 17.6046 20.3103 17.6524L19.9572 18.264C19.9296 18.3119 19.8684 18.3283 19.8206 18.3006L9.09638 12.109Z" fill="#28AFB0" stroke="#28AFB0" stroke-width="0.2" stroke-linejoin="round"/>
<path d="M55.0964 68.6552C55.124 68.703 55.1852 68.7194 55.233 68.6918L55.8447 68.3387C55.8925 68.3111 55.9089 68.2499 55.8813 68.2021L52.4342 62.2315C52.4066 62.1837 52.3454 62.1673 52.2976 62.1949L51.6859 62.5481C51.6381 62.5757 51.6217 62.6368 51.6493 62.6847L55.0964 68.6552Z" fill="#28AFB0" stroke="#28AFB0" stroke-width="0.2" stroke-linejoin="round"/>
<path d="M53.9133 8.04853C53.9409 8.0007 54.0021 7.98431 54.0499 8.01192L54.6616 8.36506C54.7094 8.39267 54.7258 8.45383 54.6982 8.50166L51.2511 14.4722C51.2235 14.52 51.1623 14.5364 51.1145 14.5088L50.5028 14.1557C50.455 14.128 50.4386 14.0669 50.4662 14.0191L53.9133 8.04853Z" fill="#28AFB0" stroke="#28AFB0" stroke-width="0.2" stroke-linejoin="round"/>
<path d="M74.8379 50.411C74.8897 50.4303 74.9473 50.404 74.9666 50.3523L75.2136 49.6906C75.2329 49.6389 75.2066 49.5813 75.1548 49.562L70.9473 47.9915C70.8956 47.9722 70.838 47.9985 70.8187 48.0503L70.5717 48.7119C70.5524 48.7637 70.5787 48.8213 70.6304 48.8406L74.8379 50.411Z" fill="#28AFB0" stroke="#28AFB0" stroke-width="0.2" stroke-linejoin="round"/>
<path d="M72.2349 26.4601C72.2867 26.4408 72.3443 26.4671 72.3636 26.5188L72.6105 27.1805C72.6298 27.2322 72.6036 27.2898 72.5518 27.3091L68.3443 28.8796C68.2926 28.8989 68.235 28.8726 68.2157 28.8208L67.9687 28.1591C67.9494 28.1074 67.9757 28.0498 68.0274 28.0305L72.2349 26.4601Z" fill="#28AFB0" stroke="#28AFB0" stroke-width="0.2" stroke-linejoin="round"/>
<path d="M5.40657 49.9375C5.35483 49.9568 5.29723 49.9305 5.27791 49.8788L5.03095 49.2171C5.01163 49.1654 5.03792 49.1078 5.08967 49.0884L9.29717 47.518C9.34891 47.4987 9.40651 47.525 9.42583 47.5768L9.67279 48.2384C9.69211 48.2902 9.66582 48.3478 9.61407 48.3671L5.40657 49.9375Z" fill="#28AFB0" stroke="#28AFB0" stroke-width="0.2" stroke-linejoin="round"/>
<path d="M6.826 22.6743C6.77426 22.6549 6.71666 22.6812 6.69735 22.733L6.45038 23.3947C6.43107 23.4464 6.45736 23.504 6.5091 23.5233L10.7166 25.0937C10.7683 25.113 10.8259 25.0867 10.8453 25.035L11.0922 24.3733C11.1115 24.3216 11.0853 24.264 11.0335 24.2447L6.826 22.6743Z" fill="#28AFB0" stroke="#28AFB0" stroke-width="0.2" stroke-linejoin="round"/>
</svg>
