<svg width="81" height="28" viewBox="0 0 81 28" fill="none" xmlns="http://www.w3.org/2000/svg">
<g opacity="0.25">
<path d="M27.8381 6.01403C29.4988 6.01403 30.8451 4.66774 30.8451 3.00701C30.8451 1.34629 29.4988 0 27.8381 0C26.1773 0 24.8311 1.34629 24.8311 3.00701C24.8311 4.66774 26.1773 6.01403 27.8381 6.01403Z" fill="#140C40"/>
<path d="M28.0059 7.40796H27.707C24.904 7.40796 22.6317 9.68026 22.6317 12.4833V15.9562C22.6317 18.7593 24.904 21.0316 27.707 21.0316H28.0059C30.809 21.0316 33.0813 18.7593 33.0813 15.9562V12.4833C33.0813 9.68026 30.809 7.40796 28.0059 7.40796Z" fill="#140C40"/>
<path d="M30.0355 18.3899H25.6625L23.993 27.8473H31.7049L30.0355 18.3899Z" fill="#140C40"/>
</g>
<g opacity="0.25">
<path d="M15.4429 6.01403C17.1037 6.01403 18.4499 4.66774 18.4499 3.00701C18.4499 1.34629 17.1037 0 15.4429 0C13.7822 0 12.4359 1.34629 12.4359 3.00701C12.4359 4.66774 13.7822 6.01403 15.4429 6.01403Z" fill="#140C40"/>
<path d="M15.6103 7.40796H15.3114C12.5084 7.40796 10.2361 9.68026 10.2361 12.4833V15.9562C10.2361 18.7593 12.5084 21.0316 15.3114 21.0316H15.6103C18.4133 21.0316 20.6856 18.7593 20.6856 15.9562V12.4833C20.6856 9.68026 18.4133 7.40796 15.6103 7.40796Z" fill="#140C40"/>
<path d="M17.641 18.3899H13.2668L11.5974 27.8473H19.3104L17.641 18.3899Z" fill="#140C40"/>
</g>
<g opacity="0.25">
<path d="M40.1941 6.01403C41.8549 6.01403 43.2012 4.66774 43.2012 3.00701C43.2012 1.34629 41.8549 0 40.1941 0C38.5334 0 37.1871 1.34629 37.1871 3.00701C37.1871 4.66774 38.5334 6.01403 40.1941 6.01403Z" fill="#140C40"/>
<path d="M40.3648 7.40796H40.0659C37.2629 7.40796 34.9906 9.68026 34.9906 12.4833V15.9562C34.9906 18.7593 37.2629 21.0316 40.0659 21.0316H40.3648C43.1678 21.0316 45.4401 18.7593 45.4401 15.9562V12.4833C45.4401 9.68026 43.1678 7.40796 40.3648 7.40796Z" fill="#140C40"/>
<path d="M42.3928 18.3899H38.0187L36.3492 27.8473H44.0622L42.3928 18.3899Z" fill="#140C40"/>
</g>
<g opacity="0.25">
<path d="M64.9496 6.01403C66.6104 6.01403 67.9567 4.66774 67.9567 3.00701C67.9567 1.34629 66.6104 0 64.9496 0C63.2889 0 61.9426 1.34629 61.9426 3.00701C61.9426 4.66774 63.2889 6.01403 64.9496 6.01403Z" fill="#140C40"/>
<path d="M65.1163 7.40796H64.8174C62.0144 7.40796 59.7421 9.68026 59.7421 12.4833V15.9562C59.7421 18.7593 62.0144 21.0316 64.8174 21.0316H65.1163C67.9193 21.0316 70.1916 18.7593 70.1916 15.9562V12.4833C70.1916 9.68026 67.9193 7.40796 65.1163 7.40796Z" fill="#140C40"/>
<path d="M67.1475 18.3899H62.7733L61.1039 27.8473H68.8169L67.1475 18.3899Z" fill="#140C40"/>
</g>
<g opacity="0.25">
<path d="M52.554 6.01403C54.2147 6.01403 55.561 4.66774 55.561 3.00701C55.561 1.34629 54.2147 0 52.554 0C50.8933 0 49.547 1.34629 49.547 3.00701C49.547 4.66774 50.8933 6.01403 52.554 6.01403Z" fill="#140C40"/>
<path d="M52.721 7.40796H52.4221C49.6191 7.40796 47.3468 9.68026 47.3468 12.4833V15.9562C47.3468 18.7593 49.6191 21.0316 52.4221 21.0316H52.721C55.524 21.0316 57.7963 18.7593 57.7963 15.9562V12.4833C57.7963 9.68026 55.524 7.40796 52.721 7.40796Z" fill="#140C40"/>
<path d="M54.7474 18.3899H50.3744L48.705 27.8473H56.4168L54.7474 18.3899Z" fill="#140C40"/>
</g>
<path d="M80.7007 11.4618H0V16.103H80.7007V11.4618Z" fill="#140C40"/>
<path d="M7.68052 17.8398H3.03931V27.8439H7.68052V17.8398Z" fill="#140C40"/>
<path d="M77.3017 17.8398H72.6605V27.8439H77.3017V17.8398Z" fill="#140C40"/>
</svg>
