<svg width="106" height="28" viewBox="0 0 106 28" fill="none" xmlns="http://www.w3.org/2000/svg">
<g opacity="0.25">
<path d="M14.1841 5.87471C15.8063 5.87471 17.1214 4.55961 17.1214 2.93735C17.1214 1.3151 15.8063 0 14.1841 0C12.5618 0 11.2467 1.3151 11.2467 2.93735C11.2467 4.55961 12.5618 5.87471 14.1841 5.87471Z" fill="#140C40"/>
<path d="M14.3598 7.23901H14.0654C11.3281 7.23901 9.10901 9.45807 9.10901 12.1954V15.5901C9.10901 18.3274 11.3281 20.5465 14.0654 20.5465H14.3598C17.0971 20.5465 19.3162 18.3274 19.3162 15.5901V12.1954C19.3162 9.45807 17.0971 7.23901 14.3598 7.23901Z" fill="#140C40"/>
<path d="M16.337 17.9633H12.0642L10.4343 27.201H17.9668L16.337 17.9633Z" fill="#140C40"/>
</g>
<g opacity="0.25">
<path d="M27.4392 5.87471C29.0614 5.87471 30.3765 4.55961 30.3765 2.93735C30.3765 1.3151 29.0614 0 27.4392 0C25.8169 0 24.5018 1.3151 24.5018 2.93735C24.5018 4.55961 25.8169 5.87471 27.4392 5.87471Z" fill="#140C40"/>
<path d="M27.5739 7.23901H27.2795C24.5422 7.23901 22.3231 9.45807 22.3231 12.1954V15.5901C22.3231 18.3274 24.5422 20.5465 27.2795 20.5465H27.5739C30.3112 20.5465 32.5303 18.3274 32.5303 15.5901V12.1954C32.5303 9.45807 30.3112 7.23901 27.5739 7.23901Z" fill="#140C40"/>
<path d="M29.5508 17.9633H25.2791L23.6481 27.201H31.1818L29.5508 17.9633Z" fill="#140C40"/>
</g>
<path d="M42.0303 11.3763H0V14.7029H42.0303V11.3763Z" fill="#140C40"/>
<path d="M5.50528 16.0223H2.17871V27.1989H5.50528V16.0223Z" fill="#140C40"/>
<path d="M39.6346 16.0223H36.308V27.1989H39.6346V16.0223Z" fill="#140C40"/>
<g opacity="0.25">
<path d="M78.1617 6.4305C79.784 6.4305 81.0991 5.1154 81.0991 3.49314C81.0991 1.87088 79.784 0.555786 78.1617 0.555786C76.5395 0.555786 75.2244 1.87088 75.2244 3.49314C75.2244 5.1154 76.5395 6.4305 78.1617 6.4305Z" fill="#140C40"/>
<path d="M78.3374 7.79407H78.0431C75.3057 7.79407 73.0867 10.0131 73.0867 12.7505V16.1452C73.0867 18.8825 75.3057 21.1016 78.0431 21.1016H78.3374C81.0748 21.1016 83.2938 18.8825 83.2938 16.1452V12.7505C83.2938 10.0131 81.0748 7.79407 78.3374 7.79407Z" fill="#140C40"/>
<path d="M80.3143 18.5184H76.0427L74.4116 27.755H81.9454L80.3143 18.5184Z" fill="#140C40"/>
</g>
<g opacity="0.25">
<path d="M64.9895 6.4305C66.6117 6.4305 67.9268 5.1154 67.9268 3.49314C67.9268 1.87088 66.6117 0.555786 64.9895 0.555786C63.3672 0.555786 62.0521 1.87088 62.0521 3.49314C62.0521 5.1154 63.3672 6.4305 64.9895 6.4305Z" fill="#140C40"/>
<path d="M65.1242 7.79407H64.8298C62.0925 7.79407 59.8734 10.0131 59.8734 12.7505V16.1452C59.8734 18.8825 62.0925 21.1016 64.8298 21.1016H65.1242C67.8615 21.1016 70.0806 18.8825 70.0806 16.1452V12.7505C70.0806 10.0131 67.8615 7.79407 65.1242 7.79407Z" fill="#140C40"/>
<path d="M67.101 18.5184H62.8294L61.1984 27.755H68.7321L67.101 18.5184Z" fill="#140C40"/>
</g>
<g opacity="0.25">
<path d="M91.4222 6.4305C93.0445 6.4305 94.3596 5.1154 94.3596 3.49314C94.3596 1.87088 93.0445 0.555786 91.4222 0.555786C89.8 0.555786 88.4849 1.87088 88.4849 3.49314C88.4849 5.1154 89.8 6.4305 91.4222 6.4305Z" fill="#140C40"/>
<path d="M91.5564 7.79407H91.2621C88.5247 7.79407 86.3057 10.0131 86.3057 12.7505V16.1452C86.3057 18.8825 88.5247 21.1016 91.2621 21.1016H91.5564C94.2938 21.1016 96.5128 18.8825 96.5128 16.1452V12.7505C96.5128 10.0131 94.2938 7.79407 91.5564 7.79407Z" fill="#140C40"/>
<path d="M93.5337 18.5184H89.2608L87.631 27.755H95.1635L93.5337 18.5184Z" fill="#140C40"/>
</g>
<path d="M106 11.9321H50.3813V15.2587H106V11.9321Z" fill="#140C40"/>
<path d="M56.0984 16.5781H52.7719V27.7547H56.0984V16.5781Z" fill="#140C40"/>
<path d="M103.571 16.5781H100.244V27.7547H103.571V16.5781Z" fill="#140C40"/>
</svg>
